#tb 0: 1/25
0,          0,          0,        1,   191804, f2daaab85ecc8227c958e44b3456fae8
0,          1,          1,        1,   191828, 80c599b8f3c58db35f181059aec90869
0,          2,          2,        1,   191672, 081ab347067e368c3e92ac1faa2ea933
0,          3,          3,        1,   191700, 198425dac62730270553fef97ac3ef38
0,          4,          4,        1,   191976, a667de6623f7d11b7f7d9fe40abd578e
0,          5,          5,        1,   191764, 1ba21a4be3b534b6a651640bf12b63cf
0,          6,          6,        1,   191720, 9d63ddee2324fc96727607c5980709f9
0,          7,          7,        1,   191692, b86bfa6ecfeee06775495a170a7c8bb9
0,          8,          8,        1,   191584, a86a64a1d383ef072f2fc17e7976d048
0,          9,          9,        1,   191556, 8faea41b0af5ab445eb65f34727d0cfa
0,         10,         10,        1,   191476, e20631164f65ad55642216c8cdfb414c
0,         11,         11,        1,   191280, daf024a253a90b8b6f59b570ca63356e
0,         12,         12,        1,   191700, fae65d15784413cbc36c6e06f9f3d868
0,         13,         13,        1,   191432, aa799f4516b2e48e706da61e5a8fc1f3
0,         14,         14,        1,   191420, 61d1e5031a2b5e6819c8531aa34fe4c1
0,         15,         15,        1,   191416, f3e1e60fb59f4e9f1d9e98c0eee42c3c
0,         16,         16,        1,   191504, 2aae6896ded24fb31898249ea0d99355
0,         17,         17,        1,   191592, 1d48065c7e445284b8bd49f4fbe20668
0,         18,         18,        1,   191612, 37ffbf09c3f44f4b954253627453bd3a
0,         19,         19,        1,   191624, fa479dd1f2a412115d95bb8389f61be8
0,         20,         20,        1,   191600, 4642ec6004690fbeb3c28a41198faeb3
0,         21,         21,        1,   191664, 4ffff6d4daba3a27c0493826b4777b59
0,         22,         22,        1,   191544, 9ba114162c29f537783770c2968cba9a
0,         23,         23,        1,   191584, 56fa5cef18ff2b91677183e4063d94b7
0,         24,         24,        1,   191648, 854aa515d70326a6e6230403f6e46cd8
0,         25,         25,        1,   191528, 56a8493b14f553ea72d15414b349032c
0,         26,         26,        1,   191644, 89a2e45e7c9a679a532054bfa4c621ce
0,         27,         27,        1,   191808, 6a09e77d1581dd82b5013f05e32cffe9
0,         28,         28,        1,   192036, 4375e948a177a7d9242e521671c6083f
0,         29,         29,        1,   191968, ec50a1d34a2cd973510bc5059137dc0a
0,         30,         30,        1,   191740, c0c96ae654189fb0db4862584d102db8
0,         31,         31,        1,   191792, 7243b58b1a72213ad95230f5ac8bbe72
0,         32,         32,        1,   191636, ae0e180bd5f1b79cf2862865e5a5b89e
0,         33,         33,        1,   191408, 85f18294eef023a0ff995fd75d22da47
0,         34,         34,        1,   191332, ff1c7c120d5f10027ff8e07fef2ca459
0,         35,         35,        1,   191552, 36dd28b3ed917e1a9dd460fbafccbd42
0,         36,         36,        1,   191860, c864fe9b3ed74afc68d1206b3be60717
0,         37,         37,        1,   191832, 3135be8c92e17e8dfbe713f2119407a8
0,         38,         38,        1,   191816, 1a19ec6f037aecd3523879a071dd6b7d
0,         39,         39,        1,   191708, ff5394fbaf21e31025ccb71189274d67
0,         40,         40,        1,   191816, 39fd9856c94d386633ac796fbe159904
0,         41,         41,        1,   191552, 2f5b8e24915c66a5213e8a587368c538
0,         42,         42,        1,   191556, 28a1056a5f58b2916d8151def7e102af
0,         43,         43,        1,   191704, 30000db8f792b0b762d4c9ea1b442d0b
0,         44,         44,        1,   191792, 013de9696edc2cdfcd81d239be89a988
0,         45,         45,        1,   191952, 44ed3f7914e4c2e7b51ecdcefbef36db
0,         46,         46,        1,   191924, 764583676fd2595cedf13d61c4d4339a
0,         47,         47,        1,   191788, bb29d4f35e3d05e7851c986ba410a551
0,         48,         48,        1,   191716, 2ade356badd31d5f2208c512c374671d
0,         49,         49,        1,   191736, 29c0753eb219082c9f7dca220a4c50ec
